<svg id="Capa_1" enable-background="new 0 0 512 512" height="512" viewBox="0 0 512 512" width="512" xmlns="http://www.w3.org/2000/svg"><g><g><path d="m497 48.202h-192.803c-19.299 0-36.595 8.705-48.197 22.384-11.602-13.679-28.898-22.384-48.197-22.384h-192.803c-8.284 0-15 6.716-15 15v385.597c0 8.284 6.716 15 15 15h482c8.284 0 15-6.716 15-15v-385.597c0-8.285-6.716-15-15-15zm-192.803 30h177.803v280.593h-177.803c-12.171 0-23.544 3.467-33.199 9.453v-256.77c0-.026.004-.052.004-.078s-.002-.051-.002-.077c.042-18.27 14.917-33.121 33.197-33.121zm-96.394 0c18.28 0 33.155 14.851 33.197 33.121 0 .025-.002.051-.002.077v256.845c-9.654-5.984-21.025-9.45-33.195-9.45h-177.803v-280.593zm-177.803 310.593h177.803c18.254 0 33.111 14.81 33.195 33.044v11.959h-210.998zm240.998 45.003v-11.728c0-.026.004-.051.004-.077s-.002-.051-.002-.077c.042-18.27 14.917-33.121 33.197-33.121h177.803v45.003z"/></g><g><path d="m75.003 318.21h120.992c8.284 0 15-6.716 15-15s-6.716-15-15-15h-120.992c-8.284 0-15 6.716-15 15 0 8.285 6.716 15 15 15z"/></g><g><path d="m316.001 138.202h120.996c8.284 0 15-6.716 15-15s-6.716-15-15-15h-120.996c-8.284 0-15 6.716-15 15s6.716 15 15 15z"/></g><g><path d="m75.003 258.207h120.992c8.284 0 15-6.716 15-15s-6.716-15-15-15h-120.992c-8.284 0-15 6.716-15 15 0 8.285 6.716 15 15 15z"/></g><g><path d="m316.001 198.205h120.996c8.284 0 15-6.716 15-15s-6.716-15-15-15h-120.996c-8.284 0-15 6.716-15 15s6.716 15 15 15z"/></g><g><path d="m75.003 198.202h60c8.284 0 15-6.716 15-15v-60c0-8.284-6.716-15-15-15h-60c-8.284 0-15 6.716-15 15v60c0 8.284 6.716 15 15 15zm15-60h30v30h-30z"/></g><g><path d="m436.499 228.208h-60c-8.284 0-15 6.716-15 15v60c0 8.284 6.716 15 15 15h60c8.284 0 15-6.716 15-15v-60c0-8.285-6.716-15-15-15zm-15 59.999h-30v-30h30z"/></g><g><circle cx="195.5" cy="123.202" r="15"/></g><g><circle cx="195.5" cy="183.205" r="15"/></g><g><circle cx="316" cy="243.206" r="15"/></g><g><circle cx="316" cy="303.21" r="15"/></g></g></svg>